<svg height="512pt" viewBox="0 0 512 512" width="512pt" xmlns="http://www.w3.org/2000/svg"><path d="m512 256c0 141.386719-114.613281 256-256 256-60.917969 0-116.863281-21.273438-160.808594-56.8125-14.429687-11.648438-27.566406-24.847656-39.152344-39.339844-35.066406-43.800781-56.039062-99.378906-56.039062-159.847656 0-39.007812 8.726562-75.984375 24.335938-109.078125 9.070312-19.234375 20.46875-37.15625 33.824218-53.394531 46.945313-57.113282 118.144532-93.527344 197.839844-93.527344 72.726562 0 138.367188 30.324219 184.957031 79.015625 7.585938 7.910156 14.648438 16.308594 21.171875 25.140625 1.910156 2.589844 3.769532 5.214844 5.578125 7.878906 4.367188 6.402344 8.453125 13.019532 12.234375 19.832032 20.429688 36.769531 32.058594 79.097656 32.058594 124.132812zm0 0" fill="#f2f2f2"/><path d="m506.984375 99.953125c-4.515625 9.480469-15.976563 21.589844-27.042969 31.914063-11.011718 10.25-21.605468 18.722656-24.5625 21.054687.15625 4.042969.25 8.105469.25 12.203125 0 163.957031-132.921875 296.886719-296.886718 296.886719-21.820313 0-43.082032-2.351563-63.550782-6.824219-14.429687-11.648438-27.566406-24.847656-39.152344-39.339844 58.921876-9.171875 96.921876-43.507812 96.921876-43.507812-79.945313-6.226563-95.742188-72.757813-95.742188-72.757813 28.242188 4.777344 45.953125-1.933593 45.953125-1.933593-89.984375-21.054688-82.335937-103.402344-82.335937-103.402344 20.84375 12.457031 44.992187 13.417968 44.992187 13.417968-23.894531-21.015624-36.101563-41.859374-41.492187-60.742187-12.527344-43.894531 11.828124-77.132813 11.828124-77.132813 7.085938 8.578126 14.449219 16.46875 21.996094 23.738282 81.300782 78.273437 184.453125 84.054687 191.820313 84.34375-1.765625-7.574219-2.707031-15.472656-2.707031-23.59375 0-57.5 46.636718-104.121094 104.1875-104.121094 30 0 57.03125 12.671875 76.046874 32.964844 4.621094-1.296875 9.113282-2.683594 13.449219-4.105469.605469-.199219 1.210938-.398437 1.820313-.597656 29.496094-9.832031 50.5625-21.074219 50.5625-21.074219-3.179688 19.070312-19.09375 36.214844-31.210938 46.8125-7.234375 6.339844-13.117187 10.332031-14.117187 11.003906-.09375.070313-.15625.101563-.15625.101563.0625 0 .132812-.019531.1875-.019531 6.644531-.667969 13.320312-1.820313 19.664062-3.207032 21.515625-4.703125 39.277344-12.082031 39.277344-12.082031zm0 0" fill="#1da1f2"/></svg>